<svg width="232" height="70" viewBox="0 0 232 70" fill="none" xmlns="http://www.w3.org/2000/svg">
<g opacity="0.8" filter="url(#filter0_f_935_3204)">
<circle cx="22.2484" cy="47.7516" r="13.2484" fill="url(#paint0_linear_935_3204)"/>
<circle cx="22.2484" cy="47.7516" r="12.7484" stroke="white" stroke-opacity="0.1"/>
</g>
<circle cx="22.2484" cy="47.7516" r="13.2484" fill="url(#paint1_linear_935_3204)"/>
<circle cx="22.2484" cy="47.7516" r="12.7484" stroke="white" stroke-opacity="0.1"/>
<g opacity="0.8" filter="url(#filter1_f_935_3204)">
<circle cx="35.4968" cy="34.5034" r="17.6645" fill="url(#paint2_linear_935_3204)"/>
<circle cx="35.4968" cy="34.5034" r="17.1645" stroke="white" stroke-opacity="0.1"/>
</g>
<circle cx="35.4968" cy="34.5034" r="17.6645" fill="url(#paint3_linear_935_3204)"/>
<circle cx="35.4968" cy="34.5034" r="17.1645" stroke="white" stroke-opacity="0.1"/>
<path d="M74.5637 48.6144V34.1883H80.0704V39.2879H89.0867V34.1883H94.574V48.6144H89.0867V43.1271H80.0704V48.6144H74.5637Z" fill="white"/>
<path d="M96.4341 34.1883H112.392V37.7173H101.863V39.5206H112.179V43.0301H101.863V45.0079H112.547V48.6144H96.4341V34.1883Z" fill="white"/>
<path d="M126.101 42.6811L123.678 37.7173L121.312 42.6811H126.101ZM128.99 48.6144L127.866 46.2876H119.625L118.52 48.6144H112.936L120.071 34.1883H127.478L135.021 48.6144H128.99Z" fill="white"/>
<path d="M135.649 48.6144V34.1883H145.887C147.49 34.1883 148.912 34.3176 150.153 34.5761C151.394 34.8347 152.396 35.1772 153.158 35.6038C153.921 36.0304 154.541 36.5474 155.02 37.155C155.511 37.7625 155.847 38.3766 156.028 38.997C156.209 39.6175 156.299 40.2897 156.299 41.0136V41.5953C156.299 42.3062 156.215 42.9719 156.047 43.5924C155.892 44.2129 155.576 44.8398 155.097 45.4732C154.632 46.1066 154.024 46.6496 153.275 47.102C152.538 47.5415 151.536 47.9034 150.269 48.1878C149.015 48.4722 147.561 48.6144 145.907 48.6144H135.649ZM141.156 37.9694V44.7946H145.247C148.802 44.7946 150.579 43.67 150.579 41.4208V41.3044C150.579 39.0811 148.802 37.9694 145.247 37.9694H141.156Z" fill="white"/>
<path d="M157.614 34.1883H163.121V44.4844H173.126V48.6144H157.614V34.1883Z" fill="white"/>
<path d="M174.58 34.1883H190.538V37.7173H180.01V39.5206H190.325V43.0301H180.01V45.0079H190.693V48.6144H174.58V34.1883Z" fill="white"/>
<path d="M202.193 48.8859H200.429C194.56 48.8859 191.626 47.1795 191.626 43.7669V43.573H197.675C197.779 44.9303 198.981 45.609 201.282 45.609H201.456C202.193 45.609 202.807 45.5767 203.299 45.512C203.79 45.4345 204.152 45.331 204.384 45.2018C204.617 45.0596 204.772 44.9174 204.85 44.7752C204.94 44.6201 204.985 44.4456 204.985 44.2517V44.2323C204.985 43.9608 204.914 43.7475 204.772 43.5924C204.643 43.4244 204.32 43.2822 203.803 43.1658C203.299 43.0366 202.562 42.959 201.592 42.9332L198.916 42.8556C194.198 42.7263 191.839 41.2786 191.839 38.5123V38.3378C191.839 37.8336 191.91 37.3812 192.052 36.9805C192.195 36.5668 192.453 36.1661 192.828 35.7783C193.203 35.3905 193.694 35.0674 194.302 34.8088C194.909 34.5503 195.704 34.3435 196.687 34.1883C197.682 34.0203 198.832 33.9363 200.138 33.9363H201.864C207.706 33.9363 210.628 35.4552 210.628 38.4929V38.648H204.636C204.52 37.6268 203.357 37.1162 201.146 37.1162H200.952C200.047 37.1162 199.349 37.1744 198.858 37.2907C198.367 37.3941 198.063 37.5169 197.947 37.6591C197.831 37.7884 197.772 37.9629 197.772 38.1827V38.202C197.772 38.4218 197.837 38.6028 197.966 38.745C198.109 38.8872 198.419 39.0164 198.897 39.1328C199.375 39.2362 200.047 39.2943 200.914 39.3073L203.512 39.3654C206.239 39.443 208.191 39.8243 209.368 40.5094C210.544 41.1816 211.132 42.2481 211.132 43.7088V43.9802C211.132 44.5102 211.067 44.995 210.938 45.4345C210.809 45.861 210.55 46.3005 210.163 46.753C209.775 47.1925 209.258 47.5673 208.611 47.8776C207.978 48.1749 207.112 48.4205 206.013 48.6144C204.927 48.7954 203.654 48.8859 202.193 48.8859Z" fill="white"/>
<path d="M222.341 48.8859H220.576C214.707 48.8859 211.773 47.1795 211.773 43.7669V43.573H217.823C217.926 44.9303 219.128 45.609 221.429 45.609H221.604C222.341 45.609 222.955 45.5767 223.446 45.512C223.937 45.4345 224.299 45.331 224.532 45.2018C224.764 45.0596 224.919 44.9174 224.997 44.7752C225.087 44.6201 225.133 44.4456 225.133 44.2517V44.2323C225.133 43.9608 225.062 43.7475 224.919 43.5924C224.79 43.4244 224.467 43.2822 223.95 43.1658C223.446 43.0366 222.709 42.959 221.739 42.9332L219.064 42.8556C214.345 42.7263 211.986 41.2786 211.986 38.5123V38.3378C211.986 37.8336 212.057 37.3812 212.2 36.9805C212.342 36.5668 212.6 36.1661 212.975 35.7783C213.35 35.3905 213.841 35.0674 214.449 34.8088C215.056 34.5503 215.851 34.3435 216.834 34.1883C217.829 34.0203 218.98 33.9363 220.285 33.9363H222.011C227.854 33.9363 230.775 35.4552 230.775 38.4929V38.648H224.784C224.667 37.6268 223.504 37.1162 221.294 37.1162H221.1C220.195 37.1162 219.497 37.1744 219.006 37.2907C218.514 37.3941 218.211 37.5169 218.094 37.6591C217.978 37.7884 217.92 37.9629 217.92 38.1827V38.202C217.92 38.4218 217.984 38.6028 218.114 38.745C218.256 38.8872 218.566 39.0164 219.044 39.1328C219.523 39.2362 220.195 39.2943 221.061 39.3073L223.659 39.3654C226.387 39.443 228.338 39.8243 229.515 40.5094C230.691 41.1816 231.279 42.2481 231.279 43.7088V43.9802C231.279 44.5102 231.215 44.995 231.085 45.4345C230.956 45.861 230.698 46.3005 230.31 46.753C229.922 47.1925 229.405 47.5673 228.759 47.8776C228.125 48.1749 227.259 48.4205 226.16 48.6144C225.075 48.7954 223.801 48.8859 222.341 48.8859Z" fill="white"/>
<defs>
<filter id="filter0_f_935_3204" x="0" y="25.5032" width="44.4968" height="44.4968" filterUnits="userSpaceOnUse" color-interpolation-filters="sRGB">
<feFlood flood-opacity="0" result="BackgroundImageFix"/>
<feBlend mode="normal" in="SourceGraphic" in2="BackgroundImageFix" result="shape"/>
<feGaussianBlur stdDeviation="4.5" result="effect1_foregroundBlur_935_3204"/>
</filter>
<filter id="filter1_f_935_3204" x="1.83228" y="0.838867" width="67.3291" height="67.3291" filterUnits="userSpaceOnUse" color-interpolation-filters="sRGB">
<feFlood flood-opacity="0" result="BackgroundImageFix"/>
<feBlend mode="normal" in="SourceGraphic" in2="BackgroundImageFix" result="shape"/>
<feGaussianBlur stdDeviation="8" result="effect1_foregroundBlur_935_3204"/>
</filter>
<linearGradient id="paint0_linear_935_3204" x1="22.2484" y1="34.5032" x2="22.2484" y2="60.9999" gradientUnits="userSpaceOnUse">
<stop stop-color="#C47AFE" stop-opacity="0.52"/>
<stop offset="1" stop-color="#4E9FFD"/>
</linearGradient>
<linearGradient id="paint1_linear_935_3204" x1="22.2484" y1="34.5032" x2="22.2484" y2="60.9999" gradientUnits="userSpaceOnUse">
<stop stop-color="#D8A6FF" stop-opacity="0.52"/>
<stop offset="1" stop-color="#8CC1FF"/>
</linearGradient>
<linearGradient id="paint2_linear_935_3204" x1="35.4968" y1="16.8389" x2="35.4968" y2="52.1679" gradientUnits="userSpaceOnUse">
<stop stop-color="#FFD74A"/>
<stop offset="1" stop-color="#FF6737" stop-opacity="0.65"/>
</linearGradient>
<linearGradient id="paint3_linear_935_3204" x1="35.4968" y1="16.8389" x2="35.4968" y2="52.1679" gradientUnits="userSpaceOnUse">
<stop stop-color="#FFD74A"/>
<stop offset="1" stop-color="#FF6737" stop-opacity="0.65"/>
</linearGradient>
</defs>
</svg>
